<svg xmlns="http://www.w3.org/2000/svg" xmlns:xlink="http://www.w3.org/1999/xlink" width="400pt" height="170pt" viewBox="0 0 400 170"><defs><symbol id="a" overflow="visible"><path d="M102.219-85.375c4.476-.57 8.328-.16 11.547 1.234 3.226 1.387 5.535 3.657 6.921 6.813 1.395 3.148 1.63 7.09.704 11.828a47.86 47.86 0 0 1-2.11 7.39 5.008 5.008 0 0 1-.765 1.47c-.336.43-.809.714-1.422.859a1.94 1.94 0 0 1-.64.078c-.212-.02-.388-.14-.532-.36a1.18 1.18 0 0 1-.156-.484c-.012-.176 0-.336.03-.484a45.316 45.316 0 0 0 2.313-8.328c.75-3.852.614-7.196-.406-10.032-1.012-2.832-2.797-4.925-5.36-6.28-2.562-1.364-5.812-1.759-9.75-1.188-5.437.93-10.933 3.023-16.484 6.28-5.554 3.263-11.039 7.329-16.453 12.204-5.406 4.867-10.617 10.172-15.625 15.922A274.455 274.455 0 0 0 39.984-31c-4.343 5.887-8.218 11.469-11.625 16.75-3.398 5.281-6.21 9.914-8.437 13.89a121.05 121.05 0 0 0-4.188 8.172 261.664 261.664 0 0 0-3.703 8.422c-.18.395-.34.797-.484 1.203-.356.813-.715 1.63-1.078 2.454A38.75 38.75 0 0 1 9.344 22c-.742 1.133-1.797 1.582-3.172 1.344-.637-.086-1.125-.328-1.469-.735-.336-.406-.558-.922-.672-1.547v-.093a37.132 37.132 0 0 1-.687-4.516 903.207 903.207 0 0 1-.656-19.328 777.882 777.882 0 0 0-.704-19.984A255.11 255.11 0 0 0 .172-43.33 10.907 10.907 0 0 1 0-45.311c.031-.657.375-1.016 1.031-1.079.594-.03 1.04.227 1.344.766.113.273.188.555.219.844v.172c1.219 8.093 2.054 15.765 2.515 23.015.47 7.25.82 14.563 1.063 21.938.187 4.718.41 9.61.672 14.672v.265c0 .281.031.57.093.875.063.313.254.61.579.89.332-.28.586-.593.765-.937.176-.343.32-.695.438-1.047a2.47 2.47 0 0 0 .14-.437A137.656 137.656 0 0 1 16.141-.781a285.384 285.384 0 0 1 8.687-14.672C27.047-18.922 29.77-22.926 33-27.47c3.238-4.55 6.895-9.332 10.969-14.343 4.07-5.02 8.441-9.961 13.11-14.829a161.938 161.938 0 0 1 14.546-13.422c5.031-4.093 10.125-7.492 15.281-10.203 5.164-2.718 10.27-4.421 15.313-5.109Zm0 0" style="stroke:none"/></symbol><symbol id="b" overflow="visible"><path d="M9.703-10.281A17.082 17.082 0 0 1 6.61-7.437c-1.187.855-2.53 1.433-4.03 1.734-1.493.305-2.65.195-3.485-.328-.832-.52-.992-1.676-.485-3.469a22.553 22.553 0 0 1 2.688-5.297c.258-.351.633-.601 1.125-.75.351-.082.664-.02.937.188.27.199.368.453.297.765a27.842 27.842 0 0 1-.797 1.75c-.293.586-.492.969-.593 1.156a11.683 11.683 0 0 0-1.188 3.266c0 .649.867.688 2.61.125 1.738-.57 3.43-1.617 5.078-3.14 1.644-1.52 2.43-1.97 2.359-1.344-.074.625-.547 1.46-1.422 2.5Zm-4.265-8.172c-.075.062-.243.14-.5.234a4.24 4.24 0 0 1-.797.188c-.282.043-.508 0-.672-.125-.168-.133-.18-.399-.031-.797.257-.676.53-1.27.812-1.781.29-.52.664-1.086 1.125-1.703.29-.282.61-.43.953-.454.344-.02.625.075.844.282.226.199.297.476.203.828a7.317 7.317 0 0 1-1.938 3.328Zm0 0" style="stroke:none"/></symbol><symbol id="c" overflow="visible"><path d="M15.578-20.563a6.084 6.084 0 0 1-.531 1.032A80.665 80.665 0 0 1 6-7.547a9.205 9.205 0 0 1-1.484 1.438 4.62 4.62 0 0 1-1.61.765C1.29-5.07.352-5.719.094-7.28a22.547 22.547 0 0 1 0-2.907v-1.28h.078v-3.016c0-.383.016-.782.047-1.188.176-.894.625-1.36 1.343-1.39.782.03 1.211.585 1.297 1.656 0 .293-.027.562-.078.812a5.993 5.993 0 0 0-.047.703 235.5 235.5 0 0 0-.14 4.782c0 .367.148.578.453.64.113 0 .21-.023.297-.078.094-.05.176-.113.25-.187a247.17 247.17 0 0 0 2.75-3.329l1.078-1.296c.394-.5.785-.977 1.172-1.438a481.716 481.716 0 0 1 4.656-5.765 3.64 3.64 0 0 1 .625-.625c.238-.176.535-.266.89-.266.29.031.547.137.766.312a.361.361 0 0 1 .094.266.973.973 0 0 1-.047.313Zm0 0" style="stroke:none"/></symbol><symbol id="d" overflow="visible"><path d="M17.703-12.438c.383.22.414.75.094 1.594a16.38 16.38 0 0 1-1.516 1.75 10.963 10.963 0 0 1-1.75 1.422c-.054 0-.078.016-.078.047-.43.305-.875.559-1.344.766-3.886 1.398-5.87.574-5.953-2.47C5.57-7.96 4.516-7.124 3.984-6.811a7.36 7.36 0 0 1-4.187 1.03c-1.102-.07-1.852-.41-2.25-1.015-.395-.613-.36-1.441.11-2.484a13.83 13.83 0 0 1 3.046-4.39 19.214 19.214 0 0 1 5.157-3.44 5.641 5.641 0 0 1 3.172-.594c1.102.062 1.77.687 2 1.875.102.367.016.683-.265.953-.356.336-.774.406-1.25.219a.792.792 0 0 1-.141-.016.327.327 0 0 1-.125-.078c-.469-.645-.945-.914-1.422-.813-.48.106-.992.32-1.531.641-2.5 1.469-4.367 3.512-5.594 6.125a1.147 1.147 0 0 0-.125.39.37.37 0 0 0 .125.329c.29.094.613.074.969-.063A4.067 4.067 0 0 0 2.75-8.75l.906-.672.063-.078a95.75 95.75 0 0 0 3.484-3.047 2.786 2.786 0 0 1 1.875-.906c1.07 0 1.52.48 1.344 1.437-.094.368-.2.727-.313 1.079-.43 1.542-.449 2.449-.062 2.718.394.274.992.274 1.797 0 .812-.27 1.617-.781 2.422-1.531a31.205 31.205 0 0 0 2.046-2.078c.551-.625 1.016-.828 1.391-.61Zm0 0" style="stroke:none"/></symbol><symbol id="e" overflow="visible"><path d="M19.344-12.188c.258.336-.07.934-.985 1.797a15.475 15.475 0 0 1-2.906 2.172c-1.023.586-2.21 1.168-3.562 1.75a5.418 5.418 0 0 1-2.86.39C8.02-6.21 7.516-6.82 7.516-7.905c0-1.094.254-2.176.765-3.25.5-1.102.602-1.672.313-1.703-.281-.04-.867.226-1.75.796a42.304 42.304 0 0 0-6.5 5.25c-.54.657-1.223 1.016-2.047 1.079-.426 0-.754-.133-.984-.407-.239-.27-.27-.554-.094-.859a418.724 418.724 0 0 1 4.344-7.875c.32-.531.812-.863 1.468-1 .27-.04.524.047.766.266.238.218.36.464.36.734-.032.262-.141.574-.329.938-.074.21-.152.414-.234.609-.074.2-.102.367-.078.5.03.125.132.164.312.11.25-.134.492-.274.735-.423a180.42 180.42 0 0 0 1.78-1.015c.509-.29 1.04-.551 1.595-.781a7.2 7.2 0 0 1 1.734-.47c.976-.062 1.672.165 2.078.673.406.5.453 1.199.14 2.093a50.622 50.622 0 0 1-1.03 2.407c-.438.75-.512 1.324-.22 1.718.29.387 1.65-.062 4.079-1.343l1.828-1.079c1.726-1.101 2.66-1.519 2.797-1.25Zm0 0" style="stroke:none"/></symbol><symbol id="f" overflow="visible"><path d="M107.156-58.906c-.117.293-.23.586-.344.875a144.7 144.7 0 0 1-3.687 8.734A544.192 544.192 0 0 1 81.203-8.25a422.54 422.54 0 0 1-7.797 12.563 1329.934 1329.934 0 0 1-8 12.312 758.05 758.05 0 0 1-1.922 2.875.774.774 0 0 1-.109.172c-.148.3-.32.547-.516.734-.187.196-.449.297-.78.297-.15 0-.306-.039-.47-.11a1.076 1.076 0 0 1-.375-.28c-.086-.094-.14-.258-.172-.485-.03-.219-.015-.39.047-.515a21.87 21.87 0 0 1 1.47-2.688 536.169 536.169 0 0 1 3.64-5.906 787.114 787.114 0 0 0 6.75-11.016 504.18 504.18 0 0 0 14.094-25.11c4.476-8.55 8.847-17.187 13.109-25.905 1.707-3.376 3.113-6.985 4.219-10.829a12.999 12.999 0 0 0 .719-4.297c-.118-1.632-.82-2.347-2.11-2.14-1.137.23-2.21.59-3.219 1.078a87.519 87.519 0 0 0-7.078 3.828c-12.5 7.586-23.887 17-34.156 28.25-.149.18-.309.356-.484.531A856.708 856.708 0 0 0 47.5-23.219a283.89 283.89 0 0 0-10.172 12.11 30.128 30.128 0 0 1-2.14 2.421c-.805.825-1.758 1.149-2.86.97a1.688 1.688 0 0 1-1.172-.688c-.293-.406-.406-.875-.343-1.406.226-1.47.55-2.883.968-4.25a319.154 319.154 0 0 1 4.203-12.813c.207-.656.407-1.285.594-1.89.383-1.57.938-3.024 1.656-4.36 0-.031-.015-.047-.047-.047a2.567 2.567 0 0 0-.546-.234c-.18-.063-.356-.004-.532.172a37.626 37.626 0 0 0-1.875 2.25 1457.383 1457.383 0 0 0-14.703 20.297A628.174 628.174 0 0 0 6.328 10.108c-.398.688-.836 1.243-1.312 1.672-.48.426-1.121.567-1.922.422a1.315 1.315 0 0 1-.828-.656c-.188-.344-.227-.68-.11-1a23.91 23.91 0 0 1 1.39-2.735A881.138 881.138 0 0 0 7.782.391a1232.33 1232.33 0 0 0 8.375-14.766c4.301-7.582 8.133-15.566 11.5-23.953a68.02 68.02 0 0 0 3.235-10.156c.445-1.883.64-3.852.578-5.907-.211-3.289-1.297-5.644-3.266-7.062-1.969-1.414-4.558-2.086-7.765-2.016-3.211.074-6.766.73-10.672 1.969-3.907 1.242-7.914 2.875-12.016 4.906a120.052 120.052 0 0 0-11.86 6.735c-3.812 2.46-7.203 4.953-10.171 7.484-2.969 2.523-5.282 4.887-6.938 7.094-1.75 2.449-3.234 5.136-4.453 8.062-.613 1.399-.973 2.918-1.078 4.563a.899.899 0 0 1-.484.734c-.29.156-.614.203-.97.14-.57-.175-.929-.624-1.077-1.343-.094-.938-.02-1.797.218-2.578a30.622 30.622 0 0 1 2.141-5.594c1.649-3.07 4.149-6.21 7.5-9.422 3.356-3.207 7.262-6.281 11.719-9.218a115.382 115.382 0 0 1 13.969-7.86c4.851-2.3 9.597-4.094 14.234-5.375 4.633-1.281 8.813-1.851 12.531-1.719 3.719.125 6.649 1.149 8.797 3.063 2.156 1.918 3.203 4.933 3.14 9.047-.116 2.656-.53 5.18-1.25 7.562a102.075 102.075 0 0 1-3.609 10.203 174.18 174.18 0 0 1-4.328 9.625c-.468.98-.574 1.461-.312 1.438.27-.031.676-.406 1.218-1.125a716.05 716.05 0 0 1 5.813-7.61 158.473 158.473 0 0 1 4.031-4.937c.176-.227.352-.445.532-.656.78-.957 1.722-1.598 2.828-1.922.832-.188 1.53 0 2.093.562.57.555.77 1.383.594 2.485-.031.117-.062.23-.094.343a52.48 52.48 0 0 1-1.03 4.172 508.88 508.88 0 0 1-3.22 9.844 414.592 414.592 0 0 0-1.609 5.094c-.117.25-.277.7-.484 1.344a69.81 69.81 0 0 0-.625 1.687c-.188.555-.34.977-.453 1.266.144-.114 1.468-1.602 3.968-4.469 3.407-3.906 7.438-8.477 12.094-13.719 4.656-5.238 8.305-9.242 10.953-12.015a139.23 139.23 0 0 1 15.5-13.453 155.704 155.704 0 0 1 16.875-10.985 45.545 45.545 0 0 1 4.422-2.016c.32-.113.64-.242.953-.39 1.438-.57 2.957-.785 4.563-.64 3.093.292 4.507 2.245 4.25 5.859-.18 2.25-.672 4.359-1.485 6.328ZM38.062-33.328a.977.977 0 0 1 .172.156v.047c.032 0 .047-.016.047-.047a3.1 3.1 0 0 1-.218-.156Zm0 0" style="stroke:none"/></symbol><symbol id="g" overflow="visible"><path d="M11.813-11.64c.539-.54.988-.844 1.343-.907.364-.062.598-.004.703.172.102.18.032.422-.218.734a25.024 25.024 0 0 1-4.813 4.47C7.055-5.922 5.227-5.196 3.344-5c-1.875.188-3.008-.836-3.39-3.078-.29-2.227 1.054-6.77 4.046-13.625 3-6.852 5.367-12.469 7.11-16.844a2.8 2.8 0 0 1 .656-1.031c.394-.383.859-.473 1.39-.266.176.086.352.215.531.39.188.18.25.497.188.954C6.165-20.238 2.43-10.312 2.672-8.719c.25 1.594 1.281 1.992 3.094 1.188 1.82-.801 3.222-1.617 4.203-2.453.988-.844 1.601-1.395 1.844-1.657Zm0 0" style="stroke:none"/></symbol><symbol id="h" overflow="visible"><path d="M21.672-12.844c.344.086.52.211.531.375l.031.235a10.715 10.715 0 0 1-1.328 1.875 13.256 13.256 0 0 1-4.031 3.078c-.75.43-1.602.656-2.547.687-2.18.032-3.18-1.023-3-3.172.082-.457.188-.906.313-1.343.082-.207.14-.422.171-.641.22-.781.282-1.21.188-1.297-.094-.094-.352.133-.766.672-.117.094-.226.2-.328.313a61.87 61.87 0 0 1-2 2.296 18.188 18.188 0 0 1-4.297 3.61 6.209 6.209 0 0 1-3.046.906c-1.758.086-2.743-.723-2.954-2.422a6.03 6.03 0 0 1 .094-2.016C-.578-12.457.852-14.566 3-16.015c2.145-1.445 4.602-1.957 7.375-1.53.781.218 1.348.007 1.703-.642.156-.25.305-.503.453-.765a384.097 384.097 0 0 0 2.188-3.844c1.351-2.476 2.71-4.973 4.078-7.484l3.328-5.953c.32-.614.676-1.207 1.063-1.782.187-.27.41-.43.671-.484a3.7 3.7 0 0 1 .844-.094h.219c.332 0 .594.086.781.25.195.157.238.371.125.64-.21.688-.46 1.34-.75 1.954-1.5 3-2.918 6.04-4.25 9.11a613.492 613.492 0 0 0-3.906 9.25c-.43 1.085-.86 2.163-1.297 3.234a27.342 27.342 0 0 0-1.344 3.86c-.094.292-.14.577-.14.858 0 .282.132.532.406.75a.59.59 0 0 0 .562.063c.196-.07.41-.16.641-.266a.658.658 0 0 1 .14-.125 21.322 21.322 0 0 0 4.25-3.218 3.69 3.69 0 0 1 .672-.532c.239-.144.524-.171.86-.078ZM9.625-14.422c.176-.3.227-.582.156-.844-.074-.27-.258-.472-.547-.609-.605-.32-1.25-.36-1.937-.11-1.68.5-3.086 1.462-4.219 2.876-1.125 1.418-1.734 2.98-1.828 4.687a.63.63 0 0 1 .047.172v.438c.144.78.629.933 1.453.453.82-.477 1.738-1.254 2.75-2.329a60.584 60.584 0 0 0 2.734-3.062c.813-.969 1.274-1.523 1.391-1.672Zm0 0" style="stroke:none"/></symbol><symbol id="i" overflow="visible"><path d="M3.875-5.781h-.063C1.446-5.813-.108-6.336-.859-7.36c-.75-1.02-.711-2.375.109-4.063a12.415 12.415 0 0 1 2.578-3.375c.363-.32.727-.582 1.094-.781a2.73 2.73 0 0 1 1.281-.297c.27-.04.586.012.953.156.114.031.227.074.344.125.27-.05.535-.144.797-.281a.971.971 0 0 1 .266-.11 3.975 3.975 0 0 1 1.718-.28h.75c.957.148 1.68.554 2.172 1.218.488.656.66 1.461.516 2.406a5.036 5.036 0 0 1-.531 1.61C9.312-7.676 6.926-5.926 4.03-5.781Zm3.86-8.75a5.11 5.11 0 0 0-3.423 1.125c-1 .781-1.746 1.687-2.234 2.719-.492 1.023-.625 1.867-.406 2.53.219.657.898.837 2.047.532C5-8.008 6.129-8.738 7.109-9.813c.989-1.07 1.594-2.093 1.813-3.062.219-.969-.18-1.52-1.188-1.656Zm0 0" style="stroke:none"/></symbol><symbol id="j" overflow="visible"><path d="m5.125-9.484-2 5.453h4.016Zm-.828-1.454h1.672L10.14 0H8.594l-.985-2.813H2.672L1.672 0H.125Zm0 0" style="stroke:none"/></symbol><symbol id="l" overflow="visible"><path d="M1.469-10.938h1.484v9.688h5.328V0H1.47Zm0 0" style="stroke:none"/></symbol><symbol id="k" overflow="visible"><path d="M-.047-10.938h9.25v1.25H5.328V0H3.844v-9.688h-3.89Zm0 0" style="stroke:none"/></symbol><symbol id="m" overflow="visible"><path d="M9.656-10.094v1.563a5.23 5.23 0 0 0-1.594-1.047 4.776 4.776 0 0 0-1.796-.344c-1.25 0-2.211.387-2.875 1.156-.657.762-.985 1.868-.985 3.313 0 1.437.328 2.543.985 3.312C4.055-1.379 5.016-1 6.266-1c.632 0 1.234-.113 1.796-.344.563-.226 1.094-.578 1.594-1.047v1.547a5.8 5.8 0 0 1-1.64.797A6.213 6.213 0 0 1 6.187.22c-1.656 0-2.964-.504-3.921-1.516C1.316-2.317.844-3.703.844-5.453c0-1.758.472-3.145 1.422-4.156.957-1.02 2.265-1.532 3.921-1.532.645 0 1.258.09 1.844.266.582.18 1.125.438 1.625.781Zm0 0" style="stroke:none"/></symbol><symbol id="n" overflow="visible"><path d="M5.906-9.938c-1.074 0-1.93.403-2.562 1.204-.625.804-.938 1.898-.938 3.28 0 1.376.313 2.466.938 3.266.633.805 1.488 1.204 2.562 1.204 1.07 0 1.922-.399 2.547-1.204.633-.8.953-1.89.953-3.265 0-1.383-.32-2.477-.953-3.281-.625-.801-1.476-1.204-2.547-1.204Zm0-1.203c1.532 0 2.754.516 3.672 1.547.926 1.031 1.39 2.414 1.39 4.14 0 1.72-.464 3.095-1.39 4.126C8.66-.297 7.438.219 5.906.219 4.375.219 3.145-.29 2.22-1.313 1.3-2.343.844-3.723.844-5.452c0-1.727.457-3.11 1.375-4.14.926-1.032 2.156-1.548 3.687-1.548Zm0 0" style="stroke:none"/></symbol><symbol id="o" overflow="visible"><path d="M8.031-10.578v1.437a10.516 10.516 0 0 0-1.594-.593c-.5-.133-.98-.204-1.437-.204-.813 0-1.438.157-1.875.47-.438.312-.656.761-.656 1.343 0 .48.144.844.437 1.094.29.242.844.437 1.656.593l.891.188c1.102.21 1.914.578 2.438 1.11.53.53.796 1.242.796 2.124 0 1.063-.355 1.871-1.062 2.422C6.915-.05 5.875.22 4.5.22A7.888 7.888 0 0 1 2.844.03 11.612 11.612 0 0 1 1.03-.484V-2a9.12 9.12 0 0 0 1.766.766c.57.168 1.14.25 1.703.25.844 0 1.492-.164 1.953-.5.457-.332.688-.805.688-1.422 0-.54-.168-.961-.5-1.266-.325-.3-.86-.523-1.61-.672l-.906-.187C3.02-5.25 2.219-5.594 1.719-6.063 1.227-6.53.984-7.18.984-8.015c0-.968.336-1.726 1.016-2.28.688-.563 1.629-.845 2.828-.845a8.99 8.99 0 0 1 1.563.141c.53.094 1.078.234 1.64.422Zm0 0" style="stroke:none"/></symbol><symbol id="p" overflow="visible"><path d="M1.297-10.938h1.5v6.641c0 1.18.207 2.027.625 2.547.426.512 1.117.766 2.078.766.945 0 1.629-.254 2.047-.766.426-.52.64-1.367.64-2.547v-6.64h1.485v6.828c0 1.43-.356 2.507-1.063 3.234C7.91-.145 6.875.219 5.5.219c-1.387 0-2.434-.364-3.14-1.094-.712-.727-1.063-1.805-1.063-3.234Zm0 0" style="stroke:none"/></symbol><symbol id="q" overflow="visible"><path d="M6.656-5.125c.32.105.63.336.922.688.3.355.602.84.906 1.453L9.984 0H8.406L7-2.813c-.367-.726-.719-1.21-1.063-1.453-.335-.238-.792-.359-1.375-.359H2.954V0H1.47v-10.938h3.343c1.25 0 2.18.262 2.797.782.614.523.922 1.312.922 2.375 0 .687-.164 1.261-.484 1.718-.313.45-.777.762-1.39.938ZM2.953-9.719v3.875h1.86c.707 0 1.242-.16 1.609-.484.363-.332.547-.817.547-1.453 0-.645-.184-1.13-.547-1.453-.367-.32-.902-.485-1.61-.485Zm0 0" style="stroke:none"/></symbol></defs><g style="fill:#4a044e;fill-opacity:1"><use xlink:href="#a" x="20" y="100"/><use xlink:href="#b" x="58.184" y="100"/><use xlink:href="#c" x="67.705" y="100"/><use xlink:href="#b" x="80.693" y="100"/><use xlink:href="#d" x="90.215" y="100"/><use xlink:href="#e" x="106.401" y="100"/><use xlink:href="#d" x="124.297" y="100"/><use xlink:href="#f" x="140.483" y="100"/><use xlink:href="#f" x="158.94" y="100"/><use xlink:href="#d" x="250.957" y="100"/><use xlink:href="#g" x="267.144" y="100"/><use xlink:href="#h" x="279.326" y="100"/><use xlink:href="#i" x="299.736" y="100"/><use xlink:href="#e" x="312.7" y="100"/><use xlink:href="#d" x="330.596" y="100"/><use xlink:href="#h" x="346.782" y="100"/><use xlink:href="#i" x="367.192" y="100"/></g><g style="fill:#4a044e;fill-opacity:1"><use xlink:href="#j" x="215" y="150"/><use xlink:href="#k" x="225.261" y="150"/><use xlink:href="#l" x="230.029" y="150"/><use xlink:href="#k" x="238.386" y="150"/><use xlink:href="#k" x="243.154" y="150"/><use xlink:href="#k" x="252.317" y="150"/><use xlink:href="#j" x="257.085" y="150"/><use xlink:href="#k" x="267.346" y="150"/><use xlink:href="#k" x="272.114" y="150"/><use xlink:href="#m" x="276.882" y="150"/><use xlink:href="#k" x="287.356" y="150"/><use xlink:href="#n" x="292.124" y="150"/><use xlink:href="#k" x="303.931" y="150"/><use xlink:href="#o" x="308.699" y="150"/><use xlink:href="#k" x="318.22" y="150"/><use xlink:href="#k" x="322.988" y="150"/><use xlink:href="#k" x="332.151" y="150"/><use xlink:href="#p" x="336.919" y="150"/><use xlink:href="#k" x="347.898" y="150"/><use xlink:href="#q" x="352.666" y="150"/><use xlink:href="#k" x="363.088" y="150"/><use xlink:href="#j" x="367.856" y="150"/></g></svg>